# xmcd CD database file
#
# Track frame offsets:
#	187
#	40862
#	68425
#	96505
#	131520
#	159820
#
# Disc length: 2395 seconds
#
# Revision: 0
# Processed by: cddbd v1.5.1PL2 Copyright (c) Steve Scherf et al.
# Submitted via: CDex 1.60beta1
#
DISCID=42095906
DTITLE=Miles Davis - Steamin'
DYEAR=1956
DGENRE=Jazz
TTITLE0=Surrey With The Fringe On Top
TTITLE1=Salt Peanuts
TTITLE2=Something I Dreamed Last Night
TTITLE3=Diane
TTITLE4=Well You Needn't
TTITLE5=When I Fall In Love
EXTD=YEAR: 1956
EXTT0=
EXTT1=
EXTT2=
EXTT3=
EXTT4=
EXTT5=
PLAYORDER=
